# Blender v3.0.0 OBJ File: ''
# www.blender.org
mtllib Tile.mtl
o SM_ENV_Floor_T_Floor_0
v -2.000000 0.100000 2.000000
v 2.000000 0.100000 2.000000
v 2.000000 0.100000 -2.000000
v -2.000000 0.100000 -2.000000
v -2.000000 0.000000 -2.000000
v 2.000000 0.000000 -2.000000
v 2.000000 0.000000 2.000000
v -2.000000 0.000000 2.000000
vt 0.001825 0.998008
vt 0.498005 0.998008
vt 0.498005 0.501829
vt 0.001825 0.501829
vt 0.418303 0.498171
vt 0.914482 0.498171
vt 0.914482 0.001992
vt 0.418303 0.001992
vn 0.0000 1.0000 0.0000
vn 0.0000 -1.0000 0.0000
usemtl T_Floor
s off
f 1/1/1 2/2/1 3/3/1
f 1/1/1 3/3/1 4/4/1
f 5/5/2 6/6/2 7/7/2
f 5/5/2 7/7/2 8/8/2
